<svg xmlns="http://www.w3.org/2000/svg" viewBox="0 0 400 320" fill="none">
  <defs>
    <linearGradient id="heroBg" x1="0%" y1="0%" x2="100%" y2="100%">
      <stop offset="0%" style="stop-color:#dbeafe"/>
      <stop offset="100%" style="stop-color:#bfdbfe"/>
    </linearGradient>
    <linearGradient id="boxGrad" x1="0%" y1="0%" x2="0%" y2="100%">
      <stop offset="0%" style="stop-color:#3b82f6"/>
      <stop offset="100%" style="stop-color:#2563eb"/>
    </linearGradient>
    <filter id="shadow" x="-20%" y="-20%" width="140%" height="140%">
      <feDropShadow dx="0" dy="8" stdDeviation="12" flood-opacity="0.15"/>
    </filter>
  </defs>
  <!-- Shopping bag / box -->
  <g filter="url(#shadow)">
    <path fill="url(#boxGrad)" d="M120 100h160v140H120z" rx="12"/>
    <path fill="#1d4ed8" fill-opacity="0.3" d="M120 100l80 40 80-40v20l-80 40-80-40z"/>
    <rect x="160" y="180" width="80" height="12" rx="4" fill="white" fill-opacity="0.9"/>
    <rect x="170" y="200" width="60" height="8" rx="2" fill="white" fill-opacity="0.6"/>
  </g>
  <!-- Electros symbols -->
  <circle cx="200" cy="140" r="28" fill="white" fill-opacity="0.95"/>
  <path fill="#2563eb" d="M200 122v8h12l-6 12h-6v8h-4v-8h-12l6-12h6v-8h4z"/>
  <!-- Decorative elements -->
  <circle cx="80" cy="80" r="40" fill="#93c5fd" fill-opacity="0.4"/>
  <circle cx="320" cy="240" r="50" fill="#60a5fa" fill-opacity="0.3"/>
  <rect x="280" y="60" width="60" height="60" rx="8" fill="#bfdbfe" fill-opacity="0.6"/>
  <rect x="60" y="200" width="50" height="50" rx="6" fill="#93c5fd" fill-opacity="0.5"/>
</svg>
